<mxfile host="app.diagrams.net" modified="2022-03-28T04:53:23.997Z" agent="5.0 (Macintosh; Intel Mac OS X 10_15_7) AppleWebKit/537.36 (KHTML, like Gecko) Chrome/99.0.4844.83 Safari/537.36" etag="7xbV0Luxj8LXY1qxpQhE" version="17.2.4" type="github">
  <diagram id="wOTUI5uu7divSm62oFyj" name="Page-1">
    <mxGraphModel dx="1426" dy="711" grid="1" gridSize="10" guides="1" tooltips="1" connect="1" arrows="1" fold="1" page="1" pageScale="1" pageWidth="827" pageHeight="1169" math="0" shadow="0">
      <root>
        <mxCell id="0" />
        <mxCell id="1" parent="0" />
        <mxCell id="NSLRbCG53X4ahfZBO4cL-1" value="" style="shape=image;verticalLabelPosition=bottom;labelBackgroundColor=default;verticalAlign=top;aspect=fixed;imageAspect=0;image=https://cdn.jsdelivr.net/gh/xiaolincoder/ImageHost/%E8%AE%A1%E7%AE%97%E6%9C%BA%E7%BD%91%E7%BB%9C/%E9%94%AE%E5%85%A5%E7%BD%91%E5%9D%80%E8%BF%87%E7%A8%8B/9.jpg;" vertex="1" parent="1">
          <mxGeometry x="307" y="200" width="520" height="339" as="geometry" />
        </mxCell>
        <mxCell id="NSLRbCG53X4ahfZBO4cL-2" value="N" style="rounded=0;whiteSpace=wrap;html=1;fontSize=16;fillColor=#fff2cc;gradientColor=#ffd966;strokeColor=none;" vertex="1" parent="1">
          <mxGeometry x="350" y="370" width="12" height="20" as="geometry" />
        </mxCell>
      </root>
    </mxGraphModel>
  </diagram>
</mxfile>
